HIERARCHY
ROOT root
{
	OFFSET 0.000000 0.000000 0.000000
	CHANNELS 6 Xposition Yposition Zposition Zrotation Yrotation Xrotation
	JOINT lhip
	{
		OFFSET 0.058581 -0.082280 -0.017664
		CHANNELS 3 Zrotation Yrotation Xrotation
		JOINT lknee
		{
			OFFSET 0.043451 -0.386469 0.008037
			CHANNELS 3 Zrotation Yrotation Xrotation
			JOINT lankle
			{
				OFFSET -0.014790 -0.426874 -0.037428
				CHANNELS 3 Zrotation Yrotation Xrotation
				JOINT ltoe
				{
					OFFSET 0.041054 -0.060286 0.122042
					CHANNELS 3 Zrotation Yrotation Xrotation
					End Site
					{
						OFFSET 0.000000 0.000000 0.000000
					}
				}
			}
		}
	}
	JOINT rhip
	{
		OFFSET -0.060310 -0.090513 -0.013543
		CHANNELS 3 Zrotation Yrotation Xrotation
		JOINT rknee
		{
			OFFSET -0.043257 -0.383688 -0.004843
			CHANNELS 3 Zrotation Yrotation Xrotation
			JOINT rankle
			{
				OFFSET 0.019056 -0.420046 -0.034562
				CHANNELS 3 Zrotation Yrotation Xrotation
				JOINT rtoe
				{
					OFFSET -0.034840 -0.062106 0.130323
					CHANNELS 3 Zrotation Yrotation Xrotation
					End Site
					{
						OFFSET 0.000000 0.000000 0.000000
					}
				}
			}
		}
	}
	JOINT lowerback
	{
		OFFSET 0.004439 0.124404 -0.038385
		CHANNELS 3 Zrotation Yrotation Xrotation
		JOINT upperback
		{
			OFFSET 0.004488 0.137956 0.026820
			CHANNELS 3 Zrotation Yrotation Xrotation
			JOINT chest
			{
				OFFSET -0.002265 0.056032 0.002855
				CHANNELS 3 Zrotation Yrotation Xrotation
				JOINT lowerneck
				{
					OFFSET -0.013390 0.211636 -0.033468
					CHANNELS 3 Zrotation Yrotation Xrotation
					JOINT upperneck
					{
						OFFSET 0.010113 0.088937 0.050410
						CHANNELS 3 Zrotation Yrotation Xrotation
						End Site
						{
							OFFSET 0.000000 0.000000 0.000000
						}
					}
				}
				JOINT lclavicle
				{
					OFFSET 0.071702 0.114000 -0.018898
					CHANNELS 3 Zrotation Yrotation Xrotation
					JOINT lshoulder
					{
						OFFSET 0.122921 0.045205 -0.019046
						CHANNELS 3 Zrotation Yrotation Xrotation
						JOINT lelbow
						{
							OFFSET 0.255332 -0.015649 -0.022946
							CHANNELS 3 Zrotation Yrotation Xrotation
							JOINT lwrist
							{
								OFFSET 0.265709 0.012698 -0.007375
								CHANNELS 3 Zrotation Yrotation Xrotation
								End Site
								{
									OFFSET 0.000000 0.000000 0.000000
								}
							}
						}
					}
				}
				JOINT rclavicle
				{
					OFFSET -0.082954 0.112472 -0.023707
					CHANNELS 3 Zrotation Yrotation Xrotation
					JOINT rshoulder
					{
						OFFSET -0.113228 0.046853 -0.008472
						CHANNELS 3 Zrotation Yrotation Xrotation
						JOINT relbow
						{
							OFFSET -0.260127 -0.014369 -0.031269
							CHANNELS 3 Zrotation Yrotation Xrotation
							JOINT rwrist
							{
								OFFSET -0.269108 0.006794 -0.006027
								CHANNELS 3 Zrotation Yrotation Xrotation
								End Site
								{
									OFFSET 0.000000 0.000000 0.000000
								}
							}
						}
					}
				}
			}
		}
	}
}
MOTION
Frames: 8
Frame Time: 0.033333
0.190006 0.267518 0.983986 85.841368 0.035134 84.871501 6.228511 4.331818 8.665705 -1.777863 -5.249533 0.627763 2.054651 8.573503 -10.073718 0.000000 -0.000000 0.000000 -5.209288 -2.082281 5.742991 -1.738503 4.399573 6.277082 2.639676 -4.050039 -10.989594 0.000000 -0.000000 0.000000 1.040346 3.133664 4.211472 0.494734 -0.289366 2.784289 -1.891305 0.505171 1.857756 1.251714 -7.264826 2.460038 -2.332033 -8.727720 18.168120 -28.448654 3.529851 -3.294205 -52.839836 -0.994426 5.222434 7.329515 -26.158401 7.674410 22.014262 -3.317199 1.446796 23.659555 1.515172 -2.205193 53.031223 9.772648 22.342539 -173.510839 74.277192 -151.069867 -17.307424 10.741339 -19.645948 
0.189958 0.267538 0.983840 85.813436 0.057836 84.919266 6.258899 4.308806 8.622091 -1.790852 -5.141814 0.592304 2.060327 8.473065 -10.033550 0.000000 -0.000000 0.000000 -5.185597 -2.070410 5.692183 -1.747095 4.365999 6.240997 2.633330 -3.982155 -10.960314 0.000000 -0.000000 0.000000 1.045496 3.123536 4.119868 0.516209 -0.289911 2.842783 -1.953703 0.591592 1.829189 1.489313 -7.010143 2.157152 -2.257033 -8.720527 18.062940 -28.478361 3.539817 -3.242227 -52.851586 -0.955158 4.965023 7.273061 -25.826085 8.057645 21.014790 -3.646810 1.249700 23.767441 1.589654 -2.268150 52.516933 10.599302 22.139885 -173.879619 73.872214 -150.161390 -17.553288 11.640784 -16.638451 
0.189477 0.267650 0.983916 85.817280 0.123600 84.857980 6.345224 4.267098 8.587672 -1.803516 -4.895982 0.705868 2.007771 8.274809 -10.098537 0.000000 -0.000000 0.000000 -5.117564 -2.044672 5.674145 -1.772237 4.221497 6.307593 2.658382 -3.855660 -10.942385 0.000000 -0.000000 0.000000 1.062988 3.132212 4.277883 0.507770 -0.289100 2.872073 -1.904854 0.564153 1.719650 1.886621 -6.777233 1.834303 -2.330963 -8.542287 18.086598 -28.556581 3.478307 -3.203824 -53.010943 -0.605505 4.740289 7.708734 -26.007228 8.031819 20.149022 -4.508011 2.762266 23.720362 1.891328 -2.339568 51.932936 11.541393 21.830723 -173.727745 73.381906 -149.120023 -18.018406 12.643283 -14.145533 
0.188973 0.267788 0.983921 85.669186 0.148342 84.886443 6.357948 4.217037 8.551428 -1.804610 -4.818810 0.686887 1.972147 8.347972 -10.016459 0.000000 -0.000000 0.000000 -5.084219 -2.009754 5.545170 -1.792443 4.315648 6.361599 2.665519 -3.849600 -10.921908 0.000000 -0.000000 0.000000 1.031866 3.173310 4.311743 0.518997 -0.250371 2.793601 -1.904771 0.641763 1.785640 2.221002 -6.549327 1.539255 -2.069084 -8.329810 17.981201 -28.477573 3.430630 -3.373566 -53.209461 -0.241164 4.995563 7.463163 -25.882400 8.389580 20.825641 -3.912845 1.430864 23.662938 2.196083 -2.625015 51.275179 12.833597 21.673224 -172.957445 72.950590 -147.731645 -18.760568 12.733577 -12.450073 
0.188421 0.267902 0.983947 85.623846 0.156285 84.900736 6.344779 4.201017 8.453367 -1.783067 -4.630748 0.776519 1.912869 8.268499 -10.009538 0.000000 -0.000000 0.000000 -5.093256 -2.006386 5.529650 -1.817131 4.275148 6.259904 2.747895 -3.755888 -10.757730 0.000000 -0.000000 0.000000 1.050522 3.195365 4.190289 0.487447 -0.374021 2.959888 -1.986791 0.764626 1.868360 2.862648 -6.148327 1.029500 -1.918072 -8.108941 17.836009 -28.518272 3.242939 -3.517909 -53.204525 -0.163046 4.908539 7.658443 -25.530050 8.340480 20.477004 -4.415567 1.917915 23.403135 2.623272 -2.860907 50.760444 14.485253 21.419049 -171.713560 72.244797 -146.102748 -18.530107 12.159134 -11.319403 
0.188027 0.267939 0.983866 85.631318 0.217653 84.865460 6.416252 4.202965 8.429248 -1.754802 -4.456295 0.784129 1.825481 8.020619 -9.963442 0.000000 -0.000000 0.000000 -5.047377 -2.009731 5.521282 -1.798544 4.219269 6.231337 2.671185 -3.703355 -10.707986 0.000000 -0.000000 0.000000 1.150898 3.144738 4.103317 0.464252 -0.455755 3.273764 -2.091372 0.860390 1.702885 3.734146 -5.723398 0.514027 -1.929151 -7.499195 17.583712 -28.459325 3.210517 -3.537834 -53.298172 -0.070816 4.592772 7.692023 -25.349338 8.735585 19.290073 -4.760078 1.968524 22.966981 2.980393 -2.899454 50.302627 16.319401 20.916346 -170.444916 71.366275 -144.172681 -18.255543 13.103956 -10.806251 
0.190317 0.267854 0.984308 84.792596 0.118751 84.755546 6.353849 4.897647 9.261022 -1.708318 -4.551585 0.026376 1.851303 8.197782 -9.856956 0.000000 -0.000000 0.000000 -5.191884 -1.911551 5.671408 -1.839673 4.753630 6.108676 2.708537 -3.397058 -10.691728 0.000000 -0.000000 0.000000 1.200024 3.434965 3.385737 0.258273 -0.042139 3.829517 -2.109660 1.046103 1.861421 4.143723 -5.757125 0.771845 -1.367706 -6.938688 16.727652 -28.404551 2.776044 -3.628901 -53.368706 0.629234 4.475105 8.099576 -25.205903 8.522511 20.253683 -4.072461 2.593801 22.382624 3.689371 -3.174893 49.818338 17.843897 20.351686 -169.680133 70.019638 -143.050195 -17.326514 11.911246 -9.131283 
0.188015 0.267888 0.984447 85.428035 0.227865 84.951775 6.404943 4.443855 8.453012 -1.694311 -4.403520 0.652439 1.751312 7.866599 -9.923905 0.000000 -0.000000 0.000000 -4.963526 -1.900697 5.370083 -1.926766 4.271501 6.223519 2.738846 -3.617269 -10.646083 0.000000 -0.000000 0.000000 1.188885 3.265184 4.013249 0.246491 -0.255106 3.127805 -2.080389 0.909923 1.746623 4.780468 -5.544372 0.096326 -1.360256 -6.853358 16.666529 -28.220001 2.957054 -3.629463 -53.373852 0.501972 4.294269 7.781177 -24.998418 9.234314 18.934531 -4.920967 2.147420 21.801038 3.977437 -3.812785 49.134576 19.583406 19.953096 -168.941738 68.802553 -141.759700 -17.867471 13.718288 -10.815587 
